<svg width="150" height="150" viewBox="0 0 150 150" fill="none" xmlns="http://www.w3.org/2000/svg">
<path d="M74.9553 150C115.523 150 148.411 116.421 148.411 75C148.411 33.5786 115.523 0 74.9553 0C34.387 0 1.5 33.5786 1.5 75C1.5 116.421 34.387 150 74.9553 150Z" fill="#6038AB"/>
<path d="M74.75 136C108.577 136 136 108.689 136 75C136 41.3106 108.577 14 74.75 14C40.9226 14 13.5 41.3106 13.5 75C13.5 108.689 40.9226 136 74.75 136Z" fill="#BABFD3"/>
<path d="M140.411 71.6752C140.411 106.658 111.291 135.35 74.9553 135.35C38.6192 135.35 9.5 106.658 9.5 71.6752C9.5 36.6922 38.6192 8 74.9553 8C111.291 8 140.411 36.6922 140.411 71.6752Z" stroke="url(#paint0_linear_10_936)" stroke-width="16"/>
<path d="M75 129.5C106.204 129.5 131.5 105.659 131.5 76.25C131.5 46.8408 106.204 23 75 23C43.7959 23 18.5 46.8408 18.5 76.25C18.5 105.659 43.7959 129.5 75 129.5Z" fill="#E6E6E6"/>
<path d="M90.6718 50.2332C93.5321 48.4639 96.2727 48.0811 98.3899 49.1547C103.135 51.5612 102.448 60.5174 100.507 64.3989C99.4098 66.5897 97.4672 68.1894 94.7253 69.1632C93.663 72.5236 92.1718 75.4113 90.2678 77.8003C91.5296 78.8534 93.1217 79.4289 94.7652 79.4262H94.845L97.5208 76.7878C97.8465 76.4686 98.2843 76.2898 98.7403 76.2898C99.1963 76.2898 99.6341 76.4686 99.9597 76.7878C100.12 76.9446 100.247 77.1317 100.334 77.3382C100.421 77.5447 100.465 77.7664 100.465 77.9905C100.465 78.2145 100.421 78.4362 100.334 78.6427C100.247 78.8492 100.12 79.0363 99.9597 79.1931L99.7228 79.4262H100.26C101.213 79.4262 101.985 80.1868 101.985 81.127C101.985 82.0659 101.212 82.8264 100.26 82.8264H99.7216L99.9585 83.0609C100.118 83.2176 100.245 83.4046 100.332 83.611C100.419 83.8174 100.463 84.039 100.463 84.2628C100.463 84.4867 100.419 84.7083 100.332 84.9147C100.245 85.1211 100.118 85.3081 99.9585 85.4648C99.6218 85.7977 99.1804 85.9636 98.739 85.9636C98.2976 85.9636 97.8562 85.7977 97.5196 85.4648L94.8438 82.8264H94.764C92.2544 82.8304 89.8267 81.9336 87.9224 80.299C87.555 80.6331 87.1753 80.9534 86.784 81.2591C83.4798 83.8401 79.4375 85.3426 74.7143 85.7528C75.3103 87.5421 75.4263 89.481 75.0185 91.3725L75.0023 91.4511L77.0609 94.6904C77.31 95.0819 77.3949 95.5557 77.2974 96.0093C77.1998 96.4629 76.9277 96.8598 76.5397 97.1143C76.3479 97.2382 76.1334 97.3228 75.9087 97.3634C75.6839 97.4039 75.4534 97.3995 75.2303 97.3505C75.0073 97.3015 74.7962 97.2087 74.6092 97.0777C74.4222 96.9466 74.263 96.7798 74.1407 96.5869L73.9587 96.3001L73.8427 96.8363C73.7952 97.0599 73.7041 97.2719 73.5745 97.4603C73.445 97.6487 73.2797 97.8097 73.088 97.9341C72.8962 98.0586 72.6818 98.1441 72.4571 98.1857C72.2323 98.2273 72.0015 98.2242 71.7779 98.1767C71.3257 98.0748 70.9323 97.798 70.6834 97.4069C70.4346 97.0158 70.3507 96.5422 70.45 96.0894L70.566 95.5533L70.2817 95.7378C69.475 96.2615 68.4014 96.0258 67.8827 95.2104C67.6338 94.8187 67.549 94.3449 67.6468 93.8913C67.7446 93.4376 68.017 93.0408 68.4051 92.7864L71.6096 90.7042L71.6271 90.6256C71.9756 89.0098 71.7521 87.3232 70.9949 85.8538C69.5736 85.8125 68.1555 85.6947 66.7468 85.501C62.5972 84.9399 60.2444 86.7678 59.6222 87.3414C54.7344 91.8463 53.7881 99.8076 53.7793 99.8874C53.7316 100.314 53.5284 100.709 53.2086 100.995C52.8887 101.282 52.4745 101.441 52.0449 101.442C51.76 101.442 51.4794 101.372 51.2277 101.238C50.976 101.105 50.7609 100.911 50.6011 100.675C50.5225 100.559 48.6834 97.8138 47.8767 93.9386C46.7807 88.6768 48.0874 83.8476 51.6547 79.9773C53.7715 77.69 56.4364 75.9799 59.3977 75.0086L59.0337 75.1033C58.0975 74.6679 57.0774 74.4423 56.0449 74.4425H55.9651L53.2793 77.0809C52.9414 77.4138 52.4976 77.5796 52.0549 77.5796C51.6123 77.5796 51.1696 77.4138 50.8305 77.0809C50.6702 76.9244 50.5428 76.7375 50.4558 76.531C50.3688 76.3246 50.324 76.1029 50.324 75.8789C50.324 75.6549 50.3688 75.4331 50.4558 75.2267C50.5428 75.0203 50.6702 74.8333 50.8305 74.6769L51.0686 74.4425H50.5288C49.5724 74.4425 48.7968 73.6819 48.7968 72.743C48.7968 71.8029 49.5724 71.0423 50.5288 71.0423H51.0686L50.8317 70.8079C50.6714 70.6514 50.544 70.4645 50.4571 70.258C50.3701 70.0516 50.3253 69.8299 50.3253 69.6059C50.3253 69.3819 50.3701 69.1601 50.4571 68.9537C50.544 68.7473 50.6714 68.5603 50.8317 68.4039C51.1591 68.0847 51.5983 67.906 52.0555 67.906C52.5128 67.906 52.9519 68.0847 53.2793 68.4039L55.9651 71.0423H56.0449C58.9688 71.0423 61.7406 72.2393 63.7157 74.3377L63.5236 74.1407C65.1017 73.9835 66.6927 74.0115 68.2642 74.2243C72.6445 74.8165 76.2268 74.2081 78.9923 72.4088C77.4344 70.481 76.5873 68.0758 76.5933 65.5972V65.5161L73.945 62.7855C73.6244 62.4508 73.4454 62.0052 73.4454 61.5417C73.4454 61.0783 73.6244 60.6327 73.945 60.298C74.101 60.135 74.2883 60.0054 74.4957 59.9168C74.7032 59.8282 74.9264 59.7825 75.152 59.7825C75.3775 59.7825 75.6007 59.8282 75.8082 59.9168C76.0156 60.0054 76.203 60.135 76.3589 60.298L76.5921 60.5399V59.9912C76.5921 59.0187 77.3564 58.2319 78.3003 58.2319C79.2417 58.2319 80.006 59.0187 80.006 59.99V60.5399L80.2404 60.298C80.3964 60.1352 80.5837 60.0057 80.791 59.9173C80.9983 59.8288 81.2214 59.7832 81.4468 59.7832C81.6722 59.7832 81.8953 59.8288 82.1026 59.9173C82.3099 60.0057 82.4972 60.1352 82.6531 60.298C83.6693 61.3454 82.9362 62.495 82.6531 62.7867L80.006 65.5161V65.5972C80.006 67.258 80.5671 68.8465 81.5758 70.1084C82.8252 68.6146 83.8077 66.7381 84.5185 64.48C83.9985 63.0423 83.1905 59.6396 85.2529 55.7793C86.3327 53.7569 88.4087 51.6322 90.6705 50.2332H90.6718Z" fill="#3B4363"/>
<defs>
<linearGradient id="paint0_linear_10_936" x1="75.4059" y1="143.35" x2="75.4059" y2="0" gradientUnits="userSpaceOnUse">
<stop stop-color="#834FE3"/>
<stop offset="1" stop-color="#8C5DE5"/>
</linearGradient>
</defs>
</svg>
