<svg width="150" height="150" viewBox="0 0 150 150" fill="none" xmlns="http://www.w3.org/2000/svg">
<path d="M74.9553 150C115.523 150 148.411 116.421 148.411 75C148.411 33.5786 115.523 0 74.9553 0C34.387 0 1.5 33.5786 1.5 75C1.5 116.421 34.387 150 74.9553 150Z" fill="#2844C4"/>
<path d="M74.75 136C108.577 136 136 108.689 136 75C136 41.3106 108.577 14 74.75 14C40.9226 14 13.5 41.3106 13.5 75C13.5 108.689 40.9226 136 74.75 136Z" fill="#BABFD3"/>
<path d="M140.411 71.6752C140.411 106.658 111.291 135.35 74.9553 135.35C38.6192 135.35 9.5 106.658 9.5 71.6752C9.5 36.6922 38.6192 8 74.9553 8C111.291 8 140.411 36.6922 140.411 71.6752Z" stroke="url(#paint0_linear_10_951)" stroke-width="16"/>
<path d="M75 129.5C106.204 129.5 131.5 105.659 131.5 76.25C131.5 46.8408 106.204 23 75 23C43.7959 23 18.5 46.8408 18.5 76.25C18.5 105.659 43.7959 129.5 75 129.5Z" fill="#E6E6E6"/>
<path d="M95.8301 60.0298C95.465 59.8863 95.0733 59.8234 94.6816 59.8452C94.1503 59.8825 93.7224 60.0979 93.4679 60.4512C91.9726 62.5468 90.7468 66.504 89.7587 69.6847C89.3056 71.1547 88.696 73.1226 88.256 74.0567C87.7964 71.44 88.3156 61.8541 88.517 58.1626L88.5198 58.103C88.6596 55.5385 88.6782 55.0882 88.6484 54.8906C88.4265 53.4839 87.8626 52.5601 86.9714 52.1471C86.0709 51.7276 84.9019 51.9141 83.6415 52.6719C83.0104 53.0541 82.8352 54.3648 82.2936 60.3067L82.2917 60.3328C81.9934 63.5974 81.3054 71.1147 80.4599 72.3675C79.5063 70.615 78.1937 60.6637 77.627 56.356C77.2308 53.3394 76.9996 51.6074 76.8439 51.0844C76.5176 49.9881 75.138 49.0559 73.7723 49.0037C72.635 48.9478 71.7028 49.5258 71.2572 50.5307C70.4238 51.4582 70.7184 54.5317 71.6394 61.8122C72.0776 65.2781 72.9818 72.4347 72.4132 73.2382C71.2768 73.1142 69.3276 68.6313 66.6195 59.9086C65.8588 57.4663 65.6239 56.7317 65.3909 56.4101C64.9304 55.2896 63.3661 54.4254 61.9641 54.5233C61.8461 54.5315 61.7288 54.5468 61.6126 54.569C60.879 54.7144 59.2038 55.3902 59.5618 58.5085C60.5499 62.8311 61.6248 66.0043 62.667 69.0852L62.6884 69.1468C63.3121 70.9925 63.9021 72.7358 64.4503 74.6701C65.7414 79.2379 65.2389 82.0718 65.2333 82.1044C65.1904 82.3952 65.1 82.5733 64.9648 82.6358C64.9073 82.6606 64.8457 82.6748 64.7831 82.6777C64.3729 82.7057 63.7595 82.4353 63.4435 82.2582C62.7201 80.8767 59.1218 74.2935 55.861 73.3799L55.7435 73.3454L55.6251 73.3566C54.4291 73.4694 53.55 73.9215 53.0121 74.6999C52.1601 75.9304 52.5134 77.4984 52.5982 77.8135L52.6467 77.9253C52.6728 77.9729 55.2886 82.7402 55.6932 84.9579C56.0418 86.8596 57.8475 88.9197 59.2999 90.5753L59.3595 90.6434C59.8331 91.1841 60.2414 91.653 60.5639 92.0864C64.7765 96.4799 71.4381 100.175 71.4921 100.206C72.3237 100.818 72.7851 101.411 72.8345 101.921C72.8572 102.114 72.8037 102.308 72.6854 102.462L72.5409 102.613L73.4619 103.508L91.0367 102.274L91.7862 98.8393C94.1037 89.1425 93.6198 80.8739 93.6115 80.8198C93.6208 80.515 94.2696 77.573 94.7916 75.1958L94.8075 75.1352C95.8487 70.3997 97.1426 64.5081 97.3915 62.268C97.4997 61.3097 96.8863 60.4297 95.8301 60.0298V60.0298Z" fill="#3B4363"/>
<defs>
<linearGradient id="paint0_linear_10_951" x1="75.4059" y1="143.35" x2="75.4059" y2="0" gradientUnits="userSpaceOnUse">
<stop stop-color="#4865F4"/>
<stop offset="1" stop-color="#5671F5"/>
</linearGradient>
</defs>
</svg>
