<svg width="150" height="150" viewBox="0 0 150 150" fill="none" xmlns="http://www.w3.org/2000/svg">
<path d="M74.9553 150C115.523 150 148.411 116.421 148.411 75C148.411 33.5786 115.523 0 74.9553 0C34.387 0 1.5 33.5786 1.5 75C1.5 116.421 34.387 150 74.9553 150Z" fill="#9E1635"/>
<path d="M74.75 136C108.577 136 136 108.689 136 75C136 41.3106 108.577 14 74.75 14C40.9226 14 13.5 41.3106 13.5 75C13.5 108.689 40.9226 136 74.75 136Z" fill="#BABFD3"/>
<path d="M140.411 71.6752C140.411 106.658 111.291 135.35 74.9553 135.35C38.6192 135.35 9.5 106.658 9.5 71.6752C9.5 36.6922 38.6192 8 74.9553 8C111.291 8 140.411 36.6922 140.411 71.6752Z" stroke="url(#paint0_linear_10_944)" stroke-width="16"/>
<path d="M75 129.5C106.204 129.5 131.5 105.659 131.5 76.25C131.5 46.8408 106.204 23 75 23C43.7959 23 18.5 46.8408 18.5 76.25C18.5 105.659 43.7959 129.5 75 129.5Z" fill="#E6E6E6"/>
<path d="M97.615 64.4722C96.9339 55.8724 87.2786 56.75 87.2786 56.75C83.2032 49.5656 76.8375 54.7697 76.8375 54.7697C71.9475 47.7272 65.8143 54.2534 65.8143 54.2534C55.2412 53.1119 55.6514 61.7591 55.6514 61.7591C55.4033 64.5081 57.1428 73.0118 57.1428 73.0118C55.5739 68.1103 52.171 72.1786 52.171 72.1786C47.988 78.6346 51.1371 82.1694 51.1371 82.1694C56.7972 88.8032 68.8572 96.7677 68.8572 96.7677C73.2253 99.2701 71.3768 101.5 71.3768 101.5L97.7914 97.1348L98.3994 92.1244C102.415 79.9754 97.615 64.4708 97.615 64.4708V64.4722Z" fill="#3B4262"/>
<defs>
<linearGradient id="paint0_linear_10_944" x1="75.4059" y1="143.35" x2="75.4059" y2="0" gradientUnits="userSpaceOnUse">
<stop stop-color="#DC2E4E"/>
<stop offset="1" stop-color="#DD405D"/>
</linearGradient>
</defs>
</svg>
