<svg width="150" height="150" viewBox="0 0 150 150" fill="none" xmlns="http://www.w3.org/2000/svg">
<path d="M74.9553 150C115.523 150 148.411 116.421 148.411 75C148.411 33.5786 115.523 0 74.9553 0C34.387 0 1.5 33.5786 1.5 75C1.5 116.421 34.387 150 74.9553 150Z" fill="#C66A15"/>
<path d="M74.75 136C108.577 136 136 108.689 136 75C136 41.3106 108.577 14 74.75 14C40.9226 14 13.5 41.3106 13.5 75C13.5 108.689 40.9226 136 74.75 136Z" fill="#BABFD3"/>
<path d="M140.411 71.6752C140.411 106.658 111.291 135.35 74.9553 135.35C38.6192 135.35 9.5 106.658 9.5 71.6752C9.5 36.6922 38.6192 8 74.9553 8C111.291 8 140.411 36.6922 140.411 71.6752Z" stroke="url(#paint0_linear_10_959)" stroke-width="16"/>
<path d="M75 129.5C106.204 129.5 131.5 105.659 131.5 76.25C131.5 46.8408 106.204 23 75 23C43.7959 23 18.5 46.8408 18.5 76.25C18.5 105.659 43.7959 129.5 75 129.5Z" fill="#E6E6E6"/>
<path d="M64.5984 73.3725L70.2994 65.3928C67.9297 64.9992 63.578 64.912 60.0144 68.4605C54.3959 74.0543 52.12 86.1373 51.6459 89.0627L65.925 103.279C68.4958 103.059 79.877 101.547 90.8447 90.6292C90.9604 90.3931 93.6327 88.4283 91.4479 86.2539C90.4048 85.2155 88.6798 85.2355 87.6149 86.2956C87.0725 86.8361 86.2295 86.8428 85.6985 86.3146C85.1674 85.7864 85.175 84.9462 85.7174 84.4067L89.593 80.5481C91.5616 78.588 89.7059 75.2805 86.9568 76.0751L83.7848 78.7786C83.2054 79.2812 82.3435 79.1949 81.8674 78.6459C81.3753 78.0798 81.4805 77.2206 82.041 76.737C93.1235 67.057 91.5048 68.2224 98.6358 61.5693C101.299 59.3608 97.9483 55.4558 95.3235 57.6909L78.0743 73.1336C77.5727 73.5584 76.8036 73.5669 76.3105 73.1146C75.7406 72.6243 75.7273 71.9179 76.1 71.3603L88.1308 52.7399C89.8889 50.3692 86.4286 47.7359 84.5757 50.1255L66.7879 74.8945C66.3593 75.5109 65.4945 75.6531 64.9056 75.2217C64.762 75.1221 64.6398 74.9947 64.5463 74.847C64.4528 74.6993 64.3899 74.5343 64.3613 74.3619C64.3327 74.1894 64.3391 74.013 64.38 73.8431C64.4209 73.6731 64.4954 73.5131 64.5993 73.3725H64.5984Z" fill="#3B4363"/>
<defs>
<linearGradient id="paint0_linear_10_959" x1="74.9553" y1="0" x2="74.9553" y2="143.35" gradientUnits="userSpaceOnUse">
<stop stop-color="#EC9E0E"/>
<stop offset="1" stop-color="#ECA922"/>
</linearGradient>
</defs>
</svg>
