<svg width="150" height="150" viewBox="0 0 150 150" fill="none" xmlns="http://www.w3.org/2000/svg">
<g clip-path="url(#clip0_10_967)">
<path d="M74.9553 150C115.523 150 148.411 116.421 148.411 75C148.411 33.5786 115.523 0 74.9553 0C34.387 0 1.5 33.5786 1.5 75C1.5 116.421 34.387 150 74.9553 150Z" fill="#2B8EAD"/>
<path d="M74.75 136C108.577 136 136 108.689 136 75C136 41.3106 108.577 14 74.75 14C40.9226 14 13.5 41.3106 13.5 75C13.5 108.689 40.9226 136 74.75 136Z" fill="#BABFD3"/>
<path d="M140.411 71.6752C140.411 106.658 111.291 135.35 74.9553 135.35C38.6192 135.35 9.5 106.658 9.5 71.6752C9.5 36.6922 38.6192 8 74.9553 8C111.291 8 140.411 36.6922 140.411 71.6752Z" stroke="url(#paint0_linear_10_967)" stroke-width="16"/>
<path d="M75 129.5C106.204 129.5 131.5 105.659 131.5 76.25C131.5 46.8408 106.204 23 75 23C43.7959 23 18.5 46.8408 18.5 76.25C18.5 105.659 43.7959 129.5 75 129.5Z" fill="#E6E6E6"/>
<path d="M98.0561 79.2239L97.2516 78.4222C95.3294 76.5074 92.187 76.0917 89.8406 77.4341L84.8291 80.2857L85.8732 57.4448C85.8732 55.5301 84.3089 53.9714 82.3839 53.9714C81.9682 53.9714 81.5682 54.0451 81.1972 54.1784L81.3221 52.9525C81.3221 51.0163 79.7327 49.4409 77.7816 49.4409C75.9769 49.4409 74.4639 50.788 74.2728 52.5163L71.0567 71.8595C71.0148 72.1224 70.5571 72.0953 70.5086 71.9294L66.7099 56.4222C66.5029 55.7162 66.0732 55.096 65.4848 54.6544C64.8964 54.2127 64.181 53.9731 63.4453 53.9714C62.4031 53.9714 61.4345 54.4385 60.7857 55.2532C60.4669 55.6512 60.2433 56.1168 60.1318 56.6144C60.0204 57.112 60.024 57.6284 60.1425 58.1244L60.8808 61.2473C60.4596 61.2145 60.0362 61.2678 59.6363 61.4039C58.9109 61.6427 58.2942 62.1321 57.8969 62.7843C57.4995 63.4365 57.3475 64.2089 57.468 64.963L59.7034 77.7585C59.7034 82.8063 60.5918 86.5426 61.3385 88.7864C61.7648 90.0769 61.9811 91.4275 61.9789 92.7865C61.9789 93.9835 61.8121 95.1748 61.4811 96.3251L59.7472 102.368C59.6503 102.709 59.7193 103.076 59.9318 103.36C60.1481 103.644 60.4837 103.811 60.8407 103.811H81.3212C81.5011 103.811 81.6786 103.769 81.839 103.687C81.9994 103.606 82.1381 103.487 82.2437 103.342C82.3493 103.196 82.4188 103.027 82.4464 102.85C82.474 102.672 82.459 102.49 82.4026 102.319C82.3904 102.29 81.4396 99.3651 82.3401 95.3864C83.4821 94.4635 87.4803 91.2269 88.9159 89.9218C91.2893 87.7638 97.7914 81.0957 98.0673 80.8124C98.2756 80.5996 98.3913 80.3131 98.3892 80.0153C98.3871 79.7176 98.2674 79.4328 98.0561 79.223V79.2239Z" fill="#3B4363"/>
</g>
<defs>
<linearGradient id="paint0_linear_10_967" x1="75.4059" y1="143.35" x2="75.4059" y2="0" gradientUnits="userSpaceOnUse">
<stop stop-color="#40B9CE"/>
<stop offset="1" stop-color="#52BED1"/>
</linearGradient>
<clipPath id="clip0_10_967">
<rect width="150" height="150" fill="white"/>
</clipPath>
</defs>
</svg>
